{  "asset": {    "version": "2.0",    "generator": "THREE.GLTFExporter r167"  },  "scenes": [    {      "name": "AuxScene",      "nodes": [        1      ]    }  ],  "scene": 0,  "nodes": [    {      "mesh": 0    },    {      "children": [        0      ]    }  ],  "bufferViews": [    {      "buffer": 0,      "byteOffset": 0,      "byteLength": 1308168,      "target": 34962,      "byteStride": 12    },    {      "buffer": 0,      "byteOffset": 1308168,      "byteLength": 1308168,      "target": 34962,      "byteStride": 12    }  ],  "buffers": [    {      "byteLength": 2616336,      "uri": "data:application/octet-stream;base64,"    }  ],  "accessors": [    {      "bufferView": 0,      "componentType": 5126,      "count": 109014,      "max": [        24.80174446105957,        41.400020599365234,        24.191890716552734      ],      "min": [        -24.80174446105957,        -41.40001678466797,        -24.191890716552734      ],      "type": "VEC3"    },    {      "bufferView": 1,      "componentType": 5126,      "count": 109014,      "max": [        0.99993896484375,        0.999908447265625,        0.9985961318016052      ],      "min": [        -0.999969482421875,        -0.999786376953125,        -1      ],      "type": "VEC3"    }  ],  "materials": [    {      "pbrMetallicRoughness": {        "baseColorFactor": [          0.6038273388475408,          0.6038273388475408,          0.6038273388475408,          1        ],        "metallicFactor": 0.5,        "roughnessFactor": 0.5      },      "doubleSided": true,      "name": "mat0"    }  ],  "meshes": [    {      "primitives": [        {          "mode": 4,          "attributes": {            "POSITION": 0,            "NORMAL": 1          },          "material": 0        }      ]    }  ]}