{  "asset": {    "version": "2.0",    "generator": "THREE.GLTFExporter r167"  },  "scenes": [    {      "name": "AuxScene",      "nodes": [        1      ]    }  ],  "scene": 0,  "nodes": [    {      "mesh": 0    },    {      "children": [        0      ]    }  ],  "bufferViews": [    {      "buffer": 0,      "byteOffset": 0,      "byteLength": 1275768,      "target": 34962,      "byteStride": 12    },    {      "buffer": 0,      "byteOffset": 1275768,      "byteLength": 1275768,      "target": 34962,      "byteStride": 12    }  ],  "buffers": [    {      "byteLength": 2551536,      "uri": "data:application/octet-stream;base64,"    }  ],  "accessors": [    {      "bufferView": 0,      "componentType": 5126,      "count": 106314,      "max": [        41.40016174316406,        24.801719665527344,        24.192001342773438      ],      "min": [        -41.40016174316406,        -24.801719665527344,        -24.192001342773438      ],      "type": "VEC3"    },    {      "bufferView": 1,      "componentType": 5126,      "count": 106314,      "max": [        0.999847412109375,        0.999908447265625,        0.9986266493797302      ],      "min": [        -0.999969482421875,        -0.999969482421875,        -1      ],      "type": "VEC3"    }  ],  "materials": [    {      "pbrMetallicRoughness": {        "baseColorFactor": [          0.6038273388475408,          0.6038273388475408,          0.6038273388475408,          1        ],        "metallicFactor": 0.5,        "roughnessFactor": 0.5      },      "doubleSided": true,      "name": "mat0"    }  ],  "meshes": [    {      "primitives": [        {          "mode": 4,          "attributes": {            "POSITION": 0,            "NORMAL": 1          },          "material": 0        }      ]    }  ]}