{  "asset": {    "version": "2.0",    "generator": "THREE.GLTFExporter r167"  },  "scenes": [    {      "name": "AuxScene",      "nodes": [        1      ]    }  ],  "scene": 0,  "nodes": [    {      "mesh": 0    },    {      "children": [        0      ]    }  ],  "bufferViews": [    {      "buffer": 0,      "byteOffset": 0,      "byteLength": 545832,      "target": 34962,      "byteStride": 12    },    {      "buffer": 0,      "byteOffset": 545832,      "byteLength": 545832,      "target": 34962,      "byteStride": 12    }  ],  "buffers": [    {      "byteLength": 1091664,      "uri": "data:application/octet-stream;base64,"    }  ],  "accessors": [    {      "bufferView": 0,      "componentType": 5126,      "count": 45486,      "max": [        59.99934768676758,        59.99934768676758,        30.13953399658203      ],      "min": [        -59.99934768676758,        -59.99934768676758,        -30.13953399658203      ],      "type": "VEC3"    },    {      "bufferView": 1,      "componentType": 5126,      "count": 45486,      "max": [        0.99993896484375,        0.99993896484375,        0.999786376953125      ],      "min": [        -0.99993896484375,        -0.99993896484375,        -1      ],      "type": "VEC3"    }  ],  "materials": [    {      "pbrMetallicRoughness": {        "baseColorFactor": [          0.6038273388475408,          0.6038273388475408,          0.6038273388475408,          1        ],        "metallicFactor": 0.5,        "roughnessFactor": 0.5      },      "doubleSided": true,      "name": "mat0"    }  ],  "meshes": [    {      "primitives": [        {          "mode": 4,          "attributes": {            "POSITION": 0,            "NORMAL": 1          },          "material": 0        }      ]    }  ]}