{  "asset": {    "version": "2.0",    "generator": "THREE.GLTFExporter r167"  },  "scenes": [    {      "name": "AuxScene",      "nodes": [        1      ]    }  ],  "scene": 0,  "nodes": [    {      "mesh": 0    },    {      "children": [        0      ]    }  ],  "bufferViews": [    {      "buffer": 0,      "byteOffset": 0,      "byteLength": 1245528,      "target": 34962,      "byteStride": 12    },    {      "buffer": 0,      "byteOffset": 1245528,      "byteLength": 1245528,      "target": 34962,      "byteStride": 12    }  ],  "buffers": [    {      "byteLength": 2491056,      "uri": "data:application/octet-stream;base64,"    }  ],  "accessors": [    {      "bufferView": 0,      "componentType": 5126,      "count": 103794,      "max": [        34.66007995605469,        34.66007995605469,        11.519540786743164      ],      "min": [        -34.66007995605469,        -34.66008377075195,        -11.519540786743164      ],      "type": "VEC3"    },    {      "bufferView": 1,      "componentType": 5126,      "count": 103794,      "max": [        1,        0.999755859375,        0.999908447265625      ],      "min": [        -0.999755859375,        -1,        -1      ],      "type": "VEC3"    }  ],  "materials": [    {      "pbrMetallicRoughness": {        "baseColorFactor": [          0.6038273388475408,          0.6038273388475408,          0.6038273388475408,          1        ],        "metallicFactor": 0.5,        "roughnessFactor": 0.5      },      "doubleSided": true,      "name": "mat0"    }  ],  "meshes": [    {      "primitives": [        {          "mode": 4,          "attributes": {            "POSITION": 0,            "NORMAL": 1          },          "material": 0        }      ]    }  ]}