{  "asset": {    "version": "2.0",    "generator": "THREE.GLTFExporter r167"  },  "scenes": [    {      "name": "AuxScene",      "nodes": [        1      ]    }  ],  "scene": 0,  "nodes": [    {      "mesh": 0    },    {      "children": [        0      ]    }  ],  "bufferViews": [    {      "buffer": 0,      "byteOffset": 0,      "byteLength": 1145232,      "target": 34962,      "byteStride": 12    },    {      "buffer": 0,      "byteOffset": 1145232,      "byteLength": 1145232,      "target": 34962,      "byteStride": 12    }  ],  "buffers": [    {      "byteLength": 2290464,      "uri": "data:application/octet-stream;base64,"    }  ],  "accessors": [    {      "bufferView": 0,      "componentType": 5126,      "count": 95436,      "max": [        22.952009201049805,        10.398575782775879,        12.597981452941895      ],      "min": [        -22.952007293701172,        -10.398571968078613,        -12.597981452941895      ],      "type": "VEC3"    },    {      "bufferView": 1,      "componentType": 5126,      "count": 95436,      "max": [        0.999969482421875,        1,        1      ],      "min": [        -0.9998779296875,        -0.999847412109375,        -1      ],      "type": "VEC3"    }  ],  "materials": [    {      "pbrMetallicRoughness": {        "baseColorFactor": [          0.6038273388475408,          0.6038273388475408,          0.6038273388475408,          1        ],        "metallicFactor": 0.5,        "roughnessFactor": 0.5      },      "doubleSided": true,      "name": "mat0"    }  ],  "meshes": [    {      "primitives": [        {          "mode": 4,          "attributes": {            "POSITION": 0,            "NORMAL": 1          },          "material": 0        }      ]    }  ]}