{  "asset": {    "version": "2.0",    "generator": "THREE.GLTFExporter r167"  },  "scenes": [    {      "name": "AuxScene",      "nodes": [        1      ]    }  ],  "scene": 0,  "nodes": [    {      "mesh": 0    },    {      "children": [        0      ]    }  ],  "bufferViews": [    {      "buffer": 0,      "byteOffset": 0,      "byteLength": 834480,      "target": 34962,      "byteStride": 12    },    {      "buffer": 0,      "byteOffset": 834480,      "byteLength": 834480,      "target": 34962,      "byteStride": 12    }  ],  "buffers": [    {      "byteLength": 1668960,      "uri": "data:application/octet-stream;base64,"    }  ],  "accessors": [    {      "bufferView": 0,      "componentType": 5126,      "count": 69540,      "max": [        19.062023162841797,        18.655061721801758,        10.648534774780273      ],      "min": [        -19.062023162841797,        -18.655065536499023,        -10.648534774780273      ],      "type": "VEC3"    },    {      "bufferView": 1,      "componentType": 5126,      "count": 69540,      "max": [        0.9998779296875,        0.99981689453125,        0.99993896484375      ],      "min": [        -0.99981689453125,        -0.999908447265625,        -1      ],      "type": "VEC3"    }  ],  "materials": [    {      "pbrMetallicRoughness": {        "baseColorFactor": [          0.6038273388475408,          0.6038273388475408,          0.6038273388475408,          1        ],        "metallicFactor": 0.5,        "roughnessFactor": 0.5      },      "doubleSided": true,      "name": "mat0"    }  ],  "meshes": [    {      "primitives": [        {          "mode": 4,          "attributes": {            "POSITION": 0,            "NORMAL": 1          },          "material": 0        }      ]    }  ]}